<?xml version="1.0" standalone="no"?>
<!DOCTYPE svg PUBLIC "-//W3C//DTD SVG 20010904//EN"
 "http://www.w3.org/TR/2001/REC-SVG-20010904/DTD/svg10.dtd">
<svg version="1.0" xmlns="http://www.w3.org/2000/svg"
 width="1024.000000pt" height="1024.000000pt" viewBox="0 0 1024.000000 1024.000000"
 preserveAspectRatio="xMidYMid meet">
<metadata>
Created by potrace 1.11, written by Peter Selinger 2001-2013
</metadata>
<g transform="translate(0.000000,1024.000000) scale(0.100000,-0.100000)"
fill="#000000" stroke="none">
<path d="M8290 9930 c-592 -108 -1036 -568 -1124 -1163 -29 -190 -18 -360 35
-570 16 -65 34 -159 39 -210 25 -239 -49 -496 -198 -692 -81 -106 -1118 -1140
-1197 -1192 -208 -139 -449 -202 -672 -175 -67 8 -327 73 -828 207 -676 181
-738 200 -840 250 -273 133 -453 358 -535 664 -119 444 -408 779 -815 946
-517 213 -1117 94 -1510 -300 -277 -276 -417 -635 -402 -1030 13 -363 149
-676 403 -929 251 -252 564 -389 920 -403 213 -9 400 24 592 103 167 69 307
164 462 314 52 51 123 112 156 136 85 61 233 129 334 154 109 27 273 36 370
21 41 -6 404 -100 805 -207 768 -206 820 -223 956 -315 149 -100 291 -272 358
-433 26 -64 314 -1110 409 -1486 35 -141 37 -331 4 -463 -48 -195 -123 -323
-292 -502 -307 -326 -431 -638 -417 -1050 8 -224 42 -366 136 -560 336 -690
1179 -972 1871 -625 257 129 485 358 614 618 95 190 140 389 140 622 -1 239
-45 425 -151 633 -188 368 -511 615 -943 722 -93 23 -235 95 -330 166 -135
102 -255 260 -319 419 -36 91 -406 1467 -422 1571 -25 158 3 359 72 525 69
165 107 208 711 811 600 598 631 625 793 692 143 60 215 74 380 75 143 1 157
-1 295 -36 244 -64 442 -72 662 -27 514 103 927 491 1062 999 67 247 59 545
-20 787 -153 468 -532 811 -1024 925 -129 30 -401 34 -540 8z"/>
</g>
</svg>
